<?xml version="1.0" standalone="no"?><!DOCTYPE svg PUBLIC "-//W3C//DTD SVG 1.1//EN" "http://www.w3.org/Graphics/SVG/1.1/DTD/svg11.dtd"><svg t="1539500470309" class="icon" style="" viewBox="0 0 1024 1024" version="1.1" xmlns="http://www.w3.org/2000/svg" p-id="1414" xmlns:xlink="http://www.w3.org/1999/xlink" width="200" height="200"><defs><style type="text/css"></style></defs><path d="M497.167313 450.564292c-29.226889-1.313123-59.193138-7.412262-88.494662-18.330071-12.069998-4.499136-18.208788-17.931236-13.709652-30.001235 4.496803-12.069998 17.926571-18.204123 29.998902-13.709652 22.304424 8.312555 44.944709 13.282829 67.03922 15.001783-6.031501-16.877006-19.729491-33.196577-71.650309-40.569188-10.537633-1.502044-20.144652-2.262396-28.559832-2.262396-55.918495 0-67.657297 30.248465-84.660251 150.460984-10.211102 71.682962-7.328297 113.527955 9.348126 135.701767 10.847838 14.428021 29.80998 23.104426 59.668941 27.305018 8.513139 1.196504 16.410533 1.80292 23.472939 1.80292 9.632675 0 18.393045-0.972597 26.383734-3.617501 0.95627-0.417494 1.933532-0.774346 2.929453-1.056562 28.035049-11.029763 46.218181-44.851414 58.899259-134.444621 4.80934-33.765675 8.587775-62.600726 9.334132-86.281246z" fill="#6ECCAE" p-id="1415"></path><path d="M355.301101 171.783482c0 48.968042 39.834493 88.807199 88.795537 88.807199 48.954047 0 88.781543-39.839158 88.781544-88.807199 0-48.944718-39.827496-88.762884-88.781544-88.762885-48.961044 0.002332-88.795538 39.820499-88.795537 88.762885z" fill="#7A4D33" p-id="1416"></path><path d="M752.015707 305.05259c35.365678 0 64.140088-28.77441 64.140088-64.140088 0-35.368011-28.77441-64.140088-64.140088-64.140088s-64.140088 28.772077-64.140088 64.140088c0 35.365678 28.77441 64.140088 64.140088 64.140088z" fill="#FFAC52" p-id="1417"></path><path d="M700.86457 339.135466a110.078385 110.078385 0 0 0 51.151137 12.56446c61.08702 0 110.787424-49.698072 110.787424-110.787424s-49.700405-110.787424-110.787424-110.787424-110.787424 49.698072-110.787424 110.787424c0 25.13825 8.429174 48.33597 22.591305 66.948258-14.756885 35.484629-40.272978 62.701017-74.470141 79.106885-15.256011 7.321299-31.91844 12.272914-49.42052 14.93881-0.82799-3.703799-1.75394-7.332961-2.882806-10.815185-17.877592-55.137152-71.417072-68.82348-110.1227-74.318537-12.876997-1.835573-24.368569-2.726537-35.130109-2.726537-46.698649 0-78.906302 18.106164-98.463198 55.354062-16.846686 32.08637-24.049034 76.284722-32.382581 135.197976-12.419853 87.200199-7.13471 136.536754 18.248438 170.293099 8.191272 10.892153 18.281091 19.778471 30.612315 26.84321-10.138799 42.549368-46.250834 63.375071-76.61825 68.289368-40.214669 6.500306-92.958812-9.702646-120.41077-74.701044a23.323668 23.323668 0 0 0-32.811737-11.314312L12.000027 721.767242c-11.260667 6.25774-15.316653 20.457189-9.061245 31.715524 6.255408 11.260667 20.459522 15.314321 31.715524 9.061245l46.700981-25.947581c30.050214 51.500992 79.587353 81.488232 134.51226 81.483567 8.151622 0 16.433857-0.662392 24.774401-2.0105 55.860186-9.040254 98.570487-47.230428 113.131453-98.481857a240.933493 240.933493 0 0 0 15.881085 2.761523c10.81052 1.520703 20.611126 2.260063 29.968582 2.260063 10.780199 0 20.657773-1.047233 29.765665-3.020415 41.474147 40.298634 34.621653 88.583292 14.894495 119.044003-25.849622 39.911461-81.644501 65.280615-148.025993 31.976749a23.323668 23.323668 0 0 0-32.310278 12.685743l-27.204727 72.837484c-4.508465 12.067666 1.620995 25.504431 13.688661 30.010564a23.25603 23.25603 0 0 0 8.158619 1.481053c9.453083 0 18.34873-5.791267 21.851945-15.169714l18.668264-49.984953c81.65383 28.914352 151.519879-7.825091 184.324618-58.481766 18.511996-28.585488 26.283442-62.187897 21.877601-94.619458-3.512544-25.863616-14.483998-49.938306-32.063047-70.938937 35.062471-29.607065 50.801282-84.620601 60.769818-155.030091 5.187184-36.438567 9.23384-67.839222 9.779614-94.929662 23.209382-3.209337 45.390191-9.683987 65.72843-19.444942 40.424582-19.39363 71.559347-50.152884 91.337817-89.889418z m51.151137-162.363052c35.365678 0 64.140088 28.772077 64.140088 64.140088 0 35.365678-28.77441 64.140088-64.140088 64.140088s-64.140088-28.77441-64.140088-64.140088c0-35.368011 28.77441-64.140088 64.140088-64.140088z m-323.079453 494.515412c-0.995921 0.284549-1.973182 0.639069-2.929453 1.056563-7.990689 2.642572-16.751059 3.617501-26.383733 3.6175-7.060074 0-14.957468-0.606415-23.47294-1.802919-29.85896-4.200593-48.821102-12.876997-59.668941-27.305019-16.67409-22.173811-19.559228-64.018805-9.348126-135.701766 17.002954-120.212519 28.741756-150.460984 84.660251-150.460984 8.41518 0 18.024531 0.760352 28.559832 2.262395 51.920818 7.372612 65.618808 23.692182 71.650309 40.569189-22.096843-1.716622-44.734796-6.689228-67.03922-15.001783-12.072331-4.494471-25.504431 1.641986-29.998902 13.709652-4.499136 12.069998 1.639654 25.502099 13.709652 30.001234 29.301524 10.917809 59.267773 17.016948 88.494663 18.330071-0.746357 23.68052-4.524792 52.517904-9.3318 86.278914-12.685743 89.595539-30.868875 123.417191-58.901592 134.446953z" fill="" p-id="1418"></path><path d="M444.096638 307.238018c74.677721 0 135.42888-60.765153 135.42888-135.454536 0-74.663727-60.753491-135.410221-135.42888-135.410221-74.684718 0-135.442874 60.744162-135.442874 135.410221 0 74.689383 60.760488 135.454536 135.442874 135.454536z m88.783876-135.454536c0 48.968042-39.827496 88.807199-88.781543 88.807199-48.961044 0-88.795538-39.839158-88.795538-88.807199 0-48.944718 39.834493-88.762884 88.795538-88.762885 48.951715 0.002332 88.781543 39.820499 88.781543 88.762885zM1000.676332 102.621808c-12.881662 0-23.323668 10.442006-23.323669 23.323668v343.655594H632.547213c-12.87933 0-23.323668 10.442006-23.323668 23.323668s10.444339 23.323668 23.323668 23.323668h16.835024c16.891001 38.908543 28.928346 107.65972 32.555176 165.845276 0.020991 0.317202 0.023324 0.641401 0.055977 0.95627 0.711372 11.694487 1.086883 22.952822 1.086883 33.439144 0 12.881662 10.444339 23.323668 23.323668 23.323668s23.323668-10.442006 23.323669-23.323668c0-4.000009-0.055977-8.200602-0.165598-12.57379h104.126184a503.212808 503.212808 0 0 0-0.165598 12.57379c0 12.881662 10.444339 23.323668 23.323669 23.323668s23.323668-10.442006 23.323668-23.323668c0-10.456 0.373179-21.684014 1.082218-33.343517 0.055977-0.52245 0.074636-1.05423 0.097959-1.583677 3.668813-58.071269 15.680502-126.521571 32.520191-165.311163h63.484693V662.392179c0 12.881662 10.442006 23.323668 23.323668 23.323669 12.87933 0 23.323668-10.442006 23.323668-23.323669V125.947809c-0.002332-12.883994-10.446671-23.326001-23.326-23.326001z m-164.151978 554.646161h-109.7985c-4.275228-46.589027-13.22452-100.018887-27.393649-141.019563h164.585798c-14.169128 41.000676-23.116088 94.428203-27.393649 141.019563z" fill="" p-id="1419"></path></svg>